HIERARCHY
ROOT root
{
	OFFSET	0	13.1	24.9
	CHANNELS 6  Xposition Yposition Zposition Xrotation Yrotation Zrotation
	JOINT spine_1
	{
		OFFSET	0	9.99999	0
		CHANNELS 3  Xrotation Yrotation Zrotation
		JOINT spine_2
		{
			OFFSET	0	112	-10
			CHANNELS 3  Xrotation Yrotation Zrotation
			JOINT spine_3
			{
				OFFSET	0	206.5	19.3
				CHANNELS 3  Xrotation Yrotation Zrotation
				JOINT spine_4
				{
					OFFSET	0	110.4	14.6
					CHANNELS 3  Xrotation Yrotation Zrotation
					JOINT neck_1
					{
						OFFSET	0	71.8	-50.3
						CHANNELS 3  Xrotation Yrotation Zrotation
						JOINT neck_2
						{
							OFFSET	0	86.2	-25.8
							CHANNELS 3  Xrotation Yrotation Zrotation
							JOINT head_ee
							{
								OFFSET	0	179.8	-8.7
								CHANNELS 3  Xrotation Yrotation Zrotation
								End Site
								{
									OFFSET	1	0	0
								}
							}
						}
					}
					JOINT left_clavicle
					{
						OFFSET	-43.2	22.4	-70.8
						CHANNELS 3  Xrotation Yrotation Zrotation
						JOINT left_shoulder
						{
							OFFSET	-93.9	-5.79999	48.7
							CHANNELS 3  Xrotation Yrotation Zrotation
							JOINT left_elbow
							{
								OFFSET	-291.4	-30.8	15.2
								CHANNELS 3  Xrotation Yrotation Zrotation
								JOINT left_lowarm_twist
								{
									OFFSET	-110.7	-3.89999	13.6
									CHANNELS 3  Xrotation Yrotation Zrotation
									JOINT left_hand
									{
										OFFSET	-110.7	-3.89999	13.6
										CHANNELS 3  Xrotation Yrotation Zrotation
										JOINT left_ee
										{
											OFFSET	-80.8	-5.10001	12.1
											CHANNELS 3  Xrotation Yrotation Zrotation
											End Site
											{
												OFFSET	1	0	0
											}
										}
									}
								}
							}
						}
					}
					JOINT right_clavicle
					{
						OFFSET	43.2	22.4	-70.8
						CHANNELS 3  Xrotation Yrotation Zrotation
						JOINT right_shoulder
						{
							OFFSET	93.9	-5.79999	48.7
							CHANNELS 3  Xrotation Yrotation Zrotation
							JOINT right_elbow
							{
								OFFSET	291.4	-30.8	15.2
								CHANNELS 3  Xrotation Yrotation Zrotation
								JOINT right_lowarm_twist
								{
									OFFSET	110.7	-3.89999	13.6
									CHANNELS 3  Xrotation Yrotation Zrotation
									JOINT right_hand
									{
										OFFSET	110.7	-3.89999	13.6
										CHANNELS 3  Xrotation Yrotation Zrotation
										JOINT right_ee
										{
											OFFSET	80.8	-5.10001	12.1
											CHANNELS 3  Xrotation Yrotation Zrotation
											End Site
											{
												OFFSET	1	0	0
											}
										}
									}
								}
							}
						}
					}
				}
			}
		}
	}
	JOINT left_hip
	{
		OFFSET	-82.8	-127.5	0.300001
		CHANNELS 3  Xrotation Yrotation Zrotation
		JOINT left_knee
		{
			OFFSET	-28.2	-396.7	2.2
			CHANNELS 3  Xrotation Yrotation Zrotation
			JOINT left_ankle
			{
				OFFSET	-11.7	-411.3	35.4
				CHANNELS 3  Xrotation Yrotation Zrotation
				JOINT left_toes
				{
					OFFSET	0	-60	-88.6
					CHANNELS 3  Xrotation Yrotation Zrotation
					JOINT left_foot_ee
					{
						OFFSET	-22.5	-16.5	-42.2
						CHANNELS 3  Xrotation Yrotation Zrotation
						End Site
						{
							OFFSET	1	0	0
						}
					}
				}
			}
		}
	}
	JOINT right_hip
	{
		OFFSET	82.8	-127.5	0.300001
		CHANNELS 3  Xrotation Yrotation Zrotation
		JOINT right_knee
		{
			OFFSET	28.2	-396.7	2.2
			CHANNELS 3  Xrotation Yrotation Zrotation
			JOINT right_ankle
			{
				OFFSET	11.7	-411.3	35.4
				CHANNELS 3  Xrotation Yrotation Zrotation
				JOINT right_toes
				{
					OFFSET	0	-60	-88.6
					CHANNELS 3  Xrotation Yrotation Zrotation
					JOINT right_foot_ee
					{
						OFFSET	22.5	-16.5	-42.2
						CHANNELS 3  Xrotation Yrotation Zrotation
						End Site
						{
							OFFSET	1	0	0
						}
					}
				}
			}
		}
	}
}
MOTION
Frames: 15
Frame Time: 0.02
805.047 671.926 -1663.66 -35.9493 79.4481 44.4646 1.97079 -0.280528 -1.09905 1.97144 -0.210028 -1.11467 1.97555 -0.0101809 -1.13424 1.97381 -0.189174 -1.1184 8.70021 -12.6856 -2.78046 9.17085 -18.5731 -3.45224 -0.0 0.0 -0.0 6.42876 3.39586 12.4713 -36.0806 -26.6142 57.4056 1.05153 -27.5141 0.257451 11.325 0.259308 -1.42108 4.11703 -16.7927 20.7736 -0.0 0.0 -0.0 10.8023 0.205403 -21.3354 -21.4264 29.1027 -41.5581 1.15341 29.7412 -0.306276 -6.69425 0.283404 -0.806992 -2.31467 28.2198 27.4862 0.0 0.0 0.0 40.3934 -36.2668 2.16486 -19.1471 0.304812 2.90882 -6.76557 20.1978 1.02456 28.4928 -0.0 -0.0 -0.0 0.0 -0.0 -0.824401 17.9024 -19.2096 -8.70174 -0.259284 -1.309 40.9198 -13.7327 4.99591 32.2002 -0.0 -0.0 0.0 0.0 0.0 
792.739 685.193 -1664.98 -34.5533 79.7049 43.3191 1.82439 -0.261934 -1.14504 1.8251 -0.188547 -1.15938 1.82896 0.021857 -1.17441 1.82708 -0.16388 -1.16312 8.34537 -12.6756 -2.88583 8.80481 -18.5388 -3.60155 -0.0 0.0 -0.0 6.43336 3.69597 12.4787 -36.4122 -26.5031 57.6021 0.989895 -26.1212 0.229644 11.3169 0.259224 -1.42005 4.10184 -16.7191 20.7046 -0.0 0.0 -0.0 10.7209 0.253657 -21.1678 -20.8242 29.4335 -43.9821 1.15364 29.746 -0.306388 -6.69505 0.283443 -0.807086 -2.30693 28.2055 27.4268 0.0 0.0 0.0 40.3728 -36.276 2.2162 -19.1396 0.304884 2.90767 -6.75683 20.0215 1.02258 28.5062 -0.0 -0.0 -0.0 0.0 -0.0 -0.887603 17.2091 -19.301 -8.7014 -0.259278 -1.30895 40.8864 -13.7368 4.99304 32.209 -0.0 -0.0 0.0 0.0 0.0 
772.183 694.301 -1666.71 -37.4061 79.4311 46.2053 1.71632 -0.261613 -1.00424 1.71685 -0.197184 -1.01885 1.72043 -0.00981372 -1.0377 1.71896 -0.173568 -1.02313 9.37016 -13.785 -2.48039 9.98113 -20.527 -3.02489 -0.0 0.0 -0.0 7.56813 4.19021 14.6426 -36.2345 -26.5981 57.4837 0.738285 -20.0887 0.130771 10.987 0.255661 -1.37807 4.01154 -16.7073 20.0717 -0.0 0.0 -0.0 10.5009 0.00820391 -20.6941 -20.6891 29.0859 -45.5774 1.06422 27.7968 -0.263343 -5.06636 0.205822 -0.613839 -2.27629 28.1384 27.1881 0.0 0.0 0.0 38.2801 -35.9963 2.07047 -18.5696 0.309919 2.82035 -7.76349 18.993 1.17271 27.707 -0.0 -0.0 -0.0 0.0 -0.0 -0.20605 15.6898 -19.5975 -8.68168 -0.258916 -1.30594 40.7688 -13.5864 4.98076 32.2152 -0.0 -0.0 0.0 0.0 0.0 
759.588 700.455 -1666.78 -39.956 80.0682 48.8727 1.6461 -0.307171 -1.14228 1.64679 -0.233867 -1.15951 1.65163 -0.0190571 -1.1827 1.64974 -0.205591 -1.16486 10.0828 -14.6017 -2.20708 10.8227 -21.9588 -2.6119 -0.0 0.0 -0.0 8.02348 4.31122 15.5157 -36.5681 -26.4683 56.7039 0.567304 -15.6969 0.0782005 10.7559 0.253021 -1.34867 3.94843 -16.6906 19.635 -0.0 0.0 -0.0 10.3439 -0.165684 -20.358 -20.6141 28.8034 -46.6924 1.00343 26.4301 -0.235636 -3.899 0.153589 -0.47403 -2.25753 28.0211 27.0162 0.0 0.0 0.0 36.5013 -35.973 1.55997 -18.1325 0.313191 2.75337 -8.46534 18.2556 1.27716 27.1004 -0.0 -0.0 -0.0 0.0 -0.0 0.230561 14.6048 -19.6346 -9.39178 -0.271285 -1.41421 40.7159 -13.4873 4.97483 32.2272 -0.0 -0.0 0.0 0.0 0.0 
737.132 707.482 -1671.19 -43.6316 80.623 53.225 1.46381 -0.337322 -1.22859 1.46461 -0.258466 -1.24756 1.4704 -0.0232065 -1.27384 1.46821 -0.224078 -1.25419 10.0606 -15.4245 -2.15929 10.9112 -23.3698 -2.52277 -0.0 0.0 -0.0 8.43506 4.4339 16.3069 -36.7626 -26.3962 56.2079 0.452036 -12.622 0.0499933 10.5855 0.250997 -1.32699 3.88996 -16.5009 19.3213 -0.0 0.0 -0.0 10.2625 -0.495932 -20.1711 -21.729 28.1059 -48.7426 0.949289 25.1848 -0.212064 -2.78758 0.106521 -0.339971 -2.17684 27.8282 26.3831 0.0 0.0 0.0 34.536 -36.2894 0.297977 -17.3813 0.31762 2.6382 -8.9114 15.6223 1.33635 26.6094 -0.0 -0.0 -0.0 0.0 -0.0 1.42921 13.6862 -19.6694 -13.7015 -0.317492 -2.07371 40.6732 -13.4198 4.97021 32.2256 -0.0 -0.0 0.0 0.0 0.0 
730.766 711.914 -1674.64 -41.0897 80.2254 50.0328 1.55926 -0.210503 -1.30543 1.5602 -0.127016 -1.31618 1.56322 0.116571 -1.31714 1.56081 -0.0928909 -1.31902 10.5016 -15.9837 -2.40029 11.4101 -23.9543 -2.76457 -0.0 0.0 -0.0 8.68426 4.63419 16.7806 -36.9258 -26.3374 56.1609 0.376534 -10.5658 0.0348168 10.8531 0.254145 -1.36102 3.8588 -16.0333 19.3423 -0.0 0.0 -0.0 10.4445 -0.335046 -20.557 -23.0189 27.5449 -50.8299 0.814856 21.9816 -0.158259 -2.34144 0.0883613 -0.28591 -1.9825 27.8586 25.0377 0.0 0.0 0.0 33.0165 -36.3682 0.171005 -16.859 0.31981 2.55809 -9.20708 13.6951 1.3764 25.5006 -0.0 -0.0 -0.0 0.0 -0.0 2.21508 12.9582 -19.8302 -17.2098 -0.318419 -2.6119 41.2626 -12.933 5.01527 32.3702 -0.0 -0.0 0.0 0.0 0.0 
706.768 710.625 -1676.98 -40.2639 81.127 49.1953 1.50605 -0.28666 -1.47999 1.50724 -0.191914 -1.49523 1.51242 0.0869399 -1.50498 1.50929 -0.151808 -1.49983 10.5991 -16.3123 -2.56907 11.5367 -24.3138 -2.95352 -0.0 0.0 -0.0 8.53848 3.21064 16.5628 -37.1382 -26.0805 54.8255 0.348603 -9.79786 0.0298794 11.9356 0.265255 -1.49885 3.82742 -14.652 19.8224 -0.0 0.0 -0.0 10.4622 -0.264709 -20.598 -25.2543 26.6931 -51.7773 0.681723 18.6602 -0.112005 -0.569812 0.020425 -0.0699027 -1.31035 27.9485 20.4731 0.0 0.0 0.0 29.2777 -36.3486 -0.422081 -14.3211 0.320052 2.16874 -8.77322 11.0499 1.30682 24.7832 -0.0 -0.0 -0.0 0.0 -0.0 5.54156 11.1528 -19.5893 -22.6274 -0.255186 -3.44046 38.3809 -14.5052 4.77769 32.1538 -0.0 -0.0 0.0 0.0 0.0 
693.425 712.047 -1673.99 -43.184 81.1865 52.0248 1.5591 -0.338548 -1.6031 1.5605 -0.235867 -1.62138 1.56736 0.0654084 -1.63714 1.56367 -0.193933 -1.62693 11.2033 -17.2074 -3.8321 12.1344 -24.4384 -4.46638 -0.0 0.0 -0.0 8.55953 0.980239 16.6857 -35.8829 -26.4315 54.2151 0.383015 -10.7435 0.0360151 13.6364 0.277446 -1.71574 3.57328 -12.0124 19.3151 -0.0 0.0 -0.0 10.6768 2.11106 -21.1713 -24.935 25.4344 -52.6996 0.576375 15.9352 -0.0806725 0.673335 -0.0232375 0.0828555 -0.28378 27.6039 13.5279 0.0 0.0 0.0 27.1455 -36.3871 -0.904879 -11.5986 0.301144 1.75148 -6.91401 9.368 1.02609 24.0543 -0.0 -0.0 -0.0 0.0 -0.0 7.87282 9.89681 -19.347 -29.4929 -0.063155 -4.47596 37.5473 -14.6585 4.7016 32.7855 -0.0 -0.0 0.0 0.0 0.0 
664.411 723.148 -1679.83 -61.6183 82.2055 70.9527 1.58765 -0.170863 -1.62025 1.58911 -0.0674296 -1.62784 1.59112 0.231572 -1.6127 1.58749 -0.0259951 -1.62903 12.7123 -19.4702 -4.31866 13.9463 -27.1818 -4.86406 -0.0 0.0 -0.0 8.50774 0.203408 16.6036 -37.4231 -28.139 53.2322 0.538551 -14.9378 0.0706046 13.9061 0.278788 -1.75016 3.22499 -10.4834 17.5672 -0.0 0.0 -0.0 10.8558 3.8452 -21.6242 -23.9379 23.5532 -53.7067 0.560956 15.5298 -0.0764918 3.06529 -0.0978707 0.379243 0.69726 27.5167 7.13265 0.0 0.0 0.0 25.1851 -36.6418 -1.97874 -9.68705 0.276033 1.45926 -5.23217 5.79718 0.775079 23.5416 -0.0 -0.0 -0.0 0.0 -0.0 9.77954 6.45714 -18.8712 -34.1133 0.13533 -5.15698 34.7538 -15.3417 4.43798 32.9562 -0.0 -0.0 0.0 0.0 0.0 
647.936 724.909 -1683.97 -75.0056 82.7859 85.1061 1.59478 -0.0583186 -1.64315 1.59628 0.0463434 -1.64354 1.59499 0.346233 -1.60733 1.59139 0.0880754 -1.64183 13.7744 -21.0904 -4.5899 15.2645 -29.1563 -5.03153 -0.0 0.0 -0.0 8.46987 -0.360698 16.5408 -38.6008 -29.2952 52.465 0.650681 -17.8657 0.102277 14.0956 0.279633 -1.77435 2.98721 -9.39607 16.3894 -0.0 0.0 -0.0 10.9177 5.17119 -21.8002 -23.2727 22.2553 -54.3744 0.550406 15.2514 -0.0736919 4.73995 -0.142724 0.588453 1.38705 27.3963 2.6575 0.0 0.0 0.0 23.8048 -36.8028 -2.73578 -8.35486 0.252773 1.25617 -4.1467 3.28686 0.614898 23.179 -0.0 -0.0 -0.0 0.0 -0.0 11.1876 4.01876 -18.4396 -37.3387 0.306193 -5.62209 32.7309 -15.8459 4.23699 33.0495 -0.0 -0.0 0.0 0.0 0.0 
636.386 715.69 -1681.43 -93.7581 82.4169 104.262 1.8734 -0.36222 -1.63943 1.87486 -0.257179 -1.65915 1.88238 0.0421444 -1.67843 1.87852 -0.223424 -1.66403 11.2926 -22.0252 -4.13248 13.0473 -32.0689 -4.46028 -0.0 0.0 -0.0 8.60752 -2.74814 16.8635 -39.686 -30.3855 51.5536 0.91104 -24.2895 0.196058 16.3726 0.283537 -2.06514 2.70201 -7.09025 15.4122 -0.0 0.0 -0.0 10.1919 5.92074 -20.2477 -23.1676 22.4599 -56.2578 0.600805 16.5743 -0.0875109 5.78138 -0.167524 0.719175 1.90377 27.2828 -0.697703 0.0 0.0 0.0 19.7528 -36.6984 -4.98183 -6.23106 0.205942 0.933639 -2.49567 -0.718821 0.37209 23.0594 -0.0 -0.0 -0.0 0.0 -0.0 14.8197 -0.649049 -16.648 -42.7097 0.648095 -6.37339 29.6599 -15.444 3.90226 32.4562 -0.0 -0.0 0.0 0.0 0.0 
621.516 717.905 -1688.21 -99.9281 82.9381 111.173 1.55479 -0.238906 -1.82587 1.55663 -0.122257 -1.83736 1.56072 0.216972 -1.8286 1.55606 -0.0744936 -1.83992 9.94258 -22.3776 -4.64964 11.6642 -32.704 -5.21517 -0.0 0.0 -0.0 8.98548 -3.76669 17.6605 -42.6499 -29.9848 50.6059 1.07104 -27.948 0.266531 16.4645 0.283451 -2.07687 2.5238 -8.00921 13.7685 -0.0 0.0 -0.0 9.46698 5.82129 -18.6951 -24.2786 22.362 -59.0696 0.663295 18.1894 -0.106181 6.27142 -0.17837 0.780833 2.18863 27.7031 -2.31344 0.0 0.0 0.0 20.6161 -37.3487 -5.4784 -6.95483 0.223245 1.04336 -0.99288 -6.23729 0.150558 23.0665 -0.0 -0.0 -0.0 0.0 -0.0 20.142 -13.2202 -11.6303 -56.5702 1.84123 -8.13685 27.1414 -5.03528 3.57596 33.0093 -0.0 -0.0 0.0 0.0 0.0 
618.053 718.208 -1691.33 -116.603 82.861 128.643 1.59 -0.391236 -2.07076 1.59235 -0.258705 -2.09145 1.60206 0.127886 -2.1035 1.59594 -0.205852 -2.0973 9.625 -21.6939 -5.3245 11.1049 -31.0561 -6.16356 -0.0 0.0 -0.0 8.99549 -3.7814 17.6816 -41.6421 -30.3396 50.2351 1.03644 -27.1763 0.25052 16.1056 0.283677 -2.03104 2.52578 -7.79787 13.8747 -0.0 0.0 -0.0 9.28481 3.98666 -18.2904 -23.8788 22.1411 -59.6757 0.629044 17.3077 -0.0957394 6.28381 -0.178637 0.782394 2.13925 27.587 -2.05496 0.0 0.0 0.0 21.274 -39.5495 -1.92684 -9.20692 0.268194 1.38601 -1.23085 -6.24911 0.186762 23.0858 -0.0 -0.0 -0.0 0.0 -0.0 20.1558 -13.2081 -11.4766 -59.245 2.11901 -8.44174 27.1698 -5.03476 3.57915 33.0574 -0.0 -0.0 0.0 0.0 0.0 
602.517 718.032 -1690.29 -138.885 80.1578 150.659 1.58341 -0.677234 -2.15773 1.58584 -0.538594 -2.19642 1.60696 -0.128503 -2.25781 1.60017 -0.483382 -2.20923 9.38923 -21.1921 -5.78493 10.7151 -29.8766 -6.79958 -0.0 0.0 -0.0 9.15306 -4.07192 18.015 -41.1786 -30.8738 49.6429 1.03107 -27.0555 0.248072 15.4528 0.283351 -1.94766 2.6422 -7.65732 14.7467 -0.0 0.0 -0.0 9.13156 2.71347 -17.9482 -22.2343 20.324 -60.2019 0.604789 16.6781 -0.0886508 7.06338 -0.194782 0.880667 2.02028 27.2305 -1.46726 0.0 0.0 0.0 20.4139 -41.2548 -1.52162 -10.0078 0.280926 1.50823 -1.36798 -6.5572 0.207935 22.6801 -0.0 -0.0 -0.0 0.0 -0.0 20.9059 -12.7054 -9.64149 -60.3261 2.2353 -8.56128 27.5509 -6.43324 3.62067 32.7675 -0.0 -0.0 0.0 0.0 0.0 
577.7 719.948 -1691.17 -146.273 78.068 158.264 1.81437 -0.855658 -2.27348 1.81696 -0.709297 -2.32328 1.84614 -0.283405 -2.41251 1.83862 -0.660755 -2.33754 9.74123 -22.1815 -5.50712 11.2934 -31.6617 -6.34432 -0.0 0.0 -0.0 9.66799 -4.90999 19.113 -40.0819 -31.2709 49.2314 1.02363 -26.8879 0.244699 15.7455 0.283614 -1.98504 2.71907 -7.5016 15.3519 -0.0 0.0 -0.0 8.72859 1.95126 -17.1008 -21.8705 18.854 -60.6216 0.541781 15.0233 -0.0714395 7.53854 -0.203966 0.94067 1.79259 27.2148 -0.0192576 0.0 0.0 0.0 19.4036 -42.5762 -0.816084 -10.534 0.288362 1.58864 -0.189299 -5.40634 0.0285421 20.9288 -0.0 -0.0 -0.0 0.0 -0.0 24.4852 -16.1208 -6.69167 -60.7986 2.28684 -8.61284 23.8554 -4.60315 3.19923 31.555 -0.0 -0.0 0.0 0.0 0.0 
